<?xml version="1.0" encoding="iso-8859-1"?>
<!-- Generator: Adobe Illustrator 16.0.0, SVG Export Plug-In . SVG Version: 6.00 Build 0)  -->
<!DOCTYPE svg PUBLIC "-//W3C//DTD SVG 1.1//EN" "http://www.w3.org/Graphics/SVG/1.1/DTD/svg11.dtd">
<svg version="1.1" id="Capa_1" xmlns="http://www.w3.org/2000/svg" xmlns:xlink="http://www.w3.org/1999/xlink" x="0px" y="0px"
	 width="344.104px" height="344.104px" viewBox="0 0 344.104 344.104" style="enable-background:new 0 0 344.104 344.104;"
	 xml:space="preserve">
<g>
	<g>
		<polygon points="169.044,266.162 183.232,266.162 176.091,250.121 		"/>
		<path d="M172.052,0C77.181,0,0,77.181,0,172.052s77.181,172.052,172.052,172.052s172.052-77.181,172.052-172.052
			S266.923,0,172.052,0z M145.539,265.449v15.144c0,1.792-0.855,3.476-2.305,4.528c-5.908,4.307-13.372,6.774-20.47,6.774
			c-17.221,0-30.713-13.126-30.713-29.884c0-16.671,13.623-29.729,31.017-29.729c6.934,0,13.807,2.225,19.351,6.261
			c1.219,0.891,2.031,2.233,2.247,3.729c0.215,1.491-0.183,3.01-1.102,4.207l-0.448,0.586c-1.844,2.403-5.266,2.905-7.725,1.133
			c-3.586-2.594-7.965-4.021-12.323-4.021c-10.292,0-18.667,8.001-18.667,17.834c0,9.877,8.408,17.912,18.74,17.912
			c3.598,0,7.455-1.104,10.806-3.061v-5.814h-10.174c-3.095,0-5.604-2.506-5.604-5.6v-0.344c0-3.093,2.509-5.6,5.604-5.6h15.772
			h0.391c3.094,0,5.603,2.507,5.603,5.6V265.449L145.539,265.449z M203.932,289.039c-1.033,1.594-2.804,2.554-4.701,2.554h-1.113
			c-2.222,0-4.23-1.312-5.125-3.343l-4.428-10.042h-24.829l-4.426,10.042c-0.894,2.031-2.906,3.343-5.125,3.343h-0.959
			c-1.9,0-3.669-0.962-4.7-2.558c-1.032-1.596-1.187-3.602-0.41-5.336l21.511-47.955c0.902-2.014,2.902-3.31,5.109-3.31h3.053
			c2.209,0,4.211,1.296,5.113,3.313l21.44,47.955C205.119,285.438,204.965,287.447,203.932,289.039z M229.809,291.82
			c-7.27,0-15.021-2.791-20.734-7.463c-2.024-1.66-2.631-4.5-1.459-6.845l0.438-0.875c0.747-1.497,2.126-2.578,3.757-2.953
			c1.625-0.375,3.341,0,4.667,1.019c4.003,3.078,8.892,4.845,13.407,4.845c1.55,0,9.289-0.242,9.289-5.042
			c0.02-3.499-2.836-4.964-10.887-7.357c-8.392-2.494-18.833-5.597-18.833-18.14c0-10.049,8.604-16.801,21.414-16.801
			c5.538,0,11.472,1.491,16.271,4.087c2.587,1.4,3.651,4.562,2.435,7.238l-0.516,1.137c-0.633,1.402-1.814,2.48-3.27,2.982
			s-3.054,0.383-4.418-0.326c-3.375-1.76-7.345-2.768-10.883-2.768c-1.913,0-8.154,0.282-8.154,3.92c0,3.32,2.818,4.771,10.76,7.19
			c8.024,2.44,19.01,5.784,18.959,18.543C252.052,284.734,243.11,291.82,229.809,291.82z M207.718,172.052
			c0.824,5.49,0.478,11.155-1.117,16.624c-4.798,16.47-20.125,27.973-37.268,27.973h-0.002c-3.674,0-7.336-0.525-10.879-1.56
			c-18.857-5.498-30.375-24.126-27.529-43.037H39.392c0-73.15,59.51-132.66,132.66-132.66c73.15,0,132.66,59.51,132.66,132.66
			H207.718z"/>
		<path d="M146.245,169.513c-3.729,12.802,3.621,26.205,16.421,29.94c12.802,3.728,26.204-3.62,29.94-16.422
			c2.064-7.084,0.733-14.345-3.037-20.057l9.26-87.553l-39.248,78.808C153.336,157.026,148.312,162.434,146.245,169.513z"/>
	</g>
</g>
<g>
</g>
<g>
</g>
<g>
</g>
<g>
</g>
<g>
</g>
<g>
</g>
<g>
</g>
<g>
</g>
<g>
</g>
<g>
</g>
<g>
</g>
<g>
</g>
<g>
</g>
<g>
</g>
<g>
</g>
</svg>
